<svg width="46" height="60" viewBox="0 0 46 60" fill="none" xmlns="http://www.w3.org/2000/svg">
<path d="M22.0364 1.47205C22.3075 0.495278 23.6925 0.495274 23.9636 1.47205L29.3625 20.9258C29.4386 21.2002 29.6282 21.4291 29.8836 21.5551L45.1824 29.1032C45.9257 29.47 45.9257 30.53 45.1823 30.8968L29.8836 38.4449C29.6282 38.5709 29.4386 38.7998 29.3625 39.0742L23.9636 58.5279C23.6925 59.5047 22.3075 59.5047 22.0364 58.528L16.6375 39.0742C16.5614 38.7998 16.3718 38.5709 16.1164 38.4449L0.817651 30.8968C0.0742599 30.53 0.0742621 29.47 0.817654 29.1032L16.1164 21.5551C16.3718 21.4291 16.5614 21.2002 16.6375 20.9258L22.0364 1.47205Z" fill="#F4B41A"/>
</svg>
