<svg width="99" height="94" viewBox="0 0 99 94" fill="none" xmlns="http://www.w3.org/2000/svg">
<path d="M89.8739 3.49993C90.8203 2.84766 91.014 1.63114 90.3067 0.782734C89.5994 -0.0656671 88.2589 -0.224669 87.3126 0.427594L89.8739 3.49993ZM75.191 83.4452L75.2916 85.3794L75.191 83.4452ZM0.488065 93.3429L23.7892 85.6319L5.0396 71.2977L0.488065 93.3429ZM87.3126 0.427594C63.2329 17.0251 47.5059 38.4428 43.9974 55.6667C42.2397 64.2961 43.5067 72.1623 48.7782 77.7112C54.0667 83.278 62.9503 86.057 75.2916 85.3794L75.0905 81.5111C63.5104 82.1469 56.1585 79.4987 52.0372 75.1605C47.8988 70.8044 46.5814 64.2879 48.2044 56.3198C51.4576 40.3487 66.3531 19.7122 89.8739 3.49993L87.3126 0.427594ZM75.2916 85.3794C87.4392 84.7124 94.9161 78.9116 97.5776 71.5996C100.191 64.4194 98.0343 56.077 91.6946 50.4845C85.275 44.8216 74.8198 42.1622 61.2108 45.8015C47.671 49.4224 30.9393 59.2722 11.4378 78.6706L14.5833 81.2585C33.8027 62.1407 49.8873 52.8555 62.3707 49.5171C74.7849 46.1973 83.5597 48.7544 88.6884 53.2787C93.897 57.8734 95.6065 64.6886 93.5162 70.4314C91.4738 76.0424 85.6763 80.9299 75.0905 81.5111L75.2916 85.3794Z" fill="#175CE1"/>
</svg>
